<svg version="1.1" id="Layer_1" xmlns="http://www.w3.org/2000/svg" xmlns:xlink="http://www.w3.org/1999/xlink" x="0px" y="0px"
	 width="100%" viewBox="0 0 633 633" enable-background="new 0 0 633 633" xml:space="preserve">
<path fill="#F7F6F7" opacity="1.000000" stroke="none" 
	d="
M634.000000,239.000000 
	C634.000000,370.999969 634.000000,502.499908 634.000000,633.999878 
	C423.000122,633.999939 212.000244,633.999939 1.000276,634.000000 
	C1.000184,423.000183 1.000184,212.000397 1.000092,1.000446 
	C211.999741,1.000297 422.999481,1.000297 633.999634,1.000149 
	C634.000000,80.166664 634.000000,159.333328 634.000000,239.000000 
M575.064514,157.947098 
	C575.064514,157.947098 575.153992,157.941406 575.080200,157.322617 
	C574.739258,156.854141 574.398254,156.385666 574.017822,155.996796 
	C574.017822,155.996796 574.090027,155.944931 574.003174,155.357834 
	C573.680908,154.900085 573.358643,154.442337 572.954407,153.405014 
	C572.628174,152.939590 572.301941,152.474167 571.892090,151.419327 
	C571.642090,151.121811 571.392151,150.824310 571.143127,150.216278 
	C571.143127,150.216278 570.926758,149.993591 570.872681,149.436417 
	C570.624451,149.169067 570.376160,148.901703 570.118591,148.280701 
	C570.118591,148.280701 569.908447,147.996094 569.875793,147.454803 
	C569.619446,147.212570 569.363098,146.970352 569.039612,146.099335 
	C568.179626,144.748611 567.319702,143.397903 566.306824,141.356277 
	C565.880066,140.823563 565.453247,140.290848 564.459839,138.979065 
	C561.153992,138.528244 561.632751,140.112228 562.902161,142.682281 
	C563.214661,143.179718 563.527100,143.677170 563.881958,144.077637 
	C563.881958,144.077637 563.781067,144.109467 563.877014,144.823685 
	C564.905945,146.909058 565.934937,148.994415 566.993164,151.560150 
	C566.993164,151.560150 567.165405,152.009506 567.146301,152.528854 
	C567.403625,152.746750 567.661011,152.964661 568.252319,153.838654 
	C568.946472,156.184494 569.461060,158.601791 570.361755,160.865479 
	C584.616089,196.691666 590.345093,233.935196 589.161621,272.370056 
	C588.463867,295.030151 585.156311,317.274475 578.840332,339.044403 
	C561.540955,398.672302 528.085083,447.221649 478.297546,484.289703 
	C437.614380,514.579285 391.521790,531.076355 341.235046,535.856873 
	C314.440216,538.404114 287.742188,536.740723 261.412292,530.964294 
	C198.542740,517.171387 146.730209,484.870972 106.309540,435.190918 
	C70.358185,391.004059 50.432758,339.700470 46.328518,282.887543 
	C44.303421,254.855225 45.792336,226.666107 52.623608,199.160065 
	C55.888256,186.014969 60.228531,173.137024 64.613518,159.650787 
	C64.889648,158.875244 65.101227,158.069153 65.451553,157.328705 
	C71.005920,145.589233 76.578056,133.858170 82.662971,121.824272 
	C82.653656,121.309288 82.644341,120.794296 82.635033,120.279312 
	C82.215393,120.639931 81.795746,121.000549 80.858482,121.782875 
	C75.168304,131.154572 69.478134,140.526291 63.247219,150.313477 
	C41.815742,190.025177 30.444334,232.451706 30.248363,277.562714 
	C30.153164,299.476898 32.123501,321.332031 37.060616,342.834808 
	C49.299091,396.137360 74.809616,442.307373 113.049820,481.069550 
	C136.992508,505.339020 164.729355,524.873413 195.869141,539.245422 
	C226.102325,553.198975 257.828217,561.629395 290.922272,564.933594 
	C315.400879,567.377563 339.747925,565.821045 363.973328,561.944641 
	C390.473053,557.704346 415.878937,549.640686 440.113342,538.316406 
	C473.901398,522.527954 503.300842,500.624207 528.577515,473.070892 
	C551.040771,448.584412 568.923340,421.327606 581.881470,390.692657 
	C594.408081,361.077667 601.556091,330.214600 603.814697,298.292389 
	C605.390320,276.023651 603.833923,253.751251 599.854187,231.752396 
	C595.923035,210.021973 589.849243,188.907684 580.122498,168.276505 
	C579.795837,167.732803 579.469177,167.189102 579.123840,166.281464 
	C579.123840,166.281464 578.909485,165.986710 578.943787,165.394485 
	C578.641418,164.911713 578.339050,164.428940 577.995422,163.987061 
	C577.995422,163.987061 578.053406,163.983063 578.061523,163.338257 
	C577.739624,162.820709 577.417725,162.303162 577.051697,161.365524 
	C577.051697,161.365524 576.858337,160.989960 576.854187,160.459686 
	C576.598816,160.228729 576.343506,159.997772 576.055786,159.360352 
	C576.055786,159.360352 575.870361,158.997192 575.873779,158.478058 
	C575.609680,158.271729 575.345581,158.065384 575.064514,157.947098 
M165.536057,105.461700 
	C164.022766,106.247795 162.509460,107.033897 160.388931,108.064735 
	C159.592133,108.371315 158.795319,108.677887 157.533203,108.461021 
	C152.228271,108.281250 146.176071,113.910057 144.957077,120.660233 
	C144.643326,121.110100 144.329590,121.559967 143.291580,122.090645 
	C142.219070,123.451065 140.574738,124.660187 140.168198,126.196800 
	C137.783401,135.210632 138.636963,144.201080 141.310532,153.009445 
	C141.593491,153.941635 143.599411,154.350845 145.019318,155.393234 
	C145.019318,155.393234 145.064453,155.835938 145.035172,156.597137 
	C146.067062,157.714752 147.098969,158.832367 148.738449,160.229370 
	C151.996017,162.465927 155.372696,164.553696 158.449265,167.016373 
	C159.590118,167.929581 160.872330,169.874847 160.653366,171.090759 
	C158.517883,182.949509 156.116791,194.761337 153.716934,206.571411 
	C147.823776,235.572632 141.894257,264.566467 135.973114,293.562012 
	C133.572632,305.317047 131.155914,317.068756 128.693710,329.079895 
	C125.258530,329.079895 122.314629,329.079895 119.416534,329.079895 
	C117.990280,343.879486 128.479797,362.072540 143.292755,370.138763 
	C160.901794,379.727539 178.351517,378.896149 194.820023,367.564484 
	C208.066025,358.450195 214.087875,345.205139 215.094376,328.812469 
	C211.383759,328.812469 208.453873,328.812469 205.360199,328.812469 
	C204.797699,325.008942 204.378342,321.577576 203.773178,318.179260 
	C200.234238,298.306732 196.579773,278.454529 193.101379,258.571503 
	C188.166992,230.365845 183.419586,202.127258 178.396057,173.937714 
	C177.791107,170.543182 178.663315,169.102875 181.792130,168.180740 
	C187.953232,166.364914 193.197128,163.228882 197.134613,157.861038 
	C205.143463,146.942902 206.044098,135.433975 201.228943,122.758804 
	C201.363266,122.601967 201.497574,122.445137 202.147949,122.747765 
	C206.929337,128.924957 209.039734,136.058411 209.275284,143.810547 
	C282.386261,143.810547 355.113953,143.810547 426.082184,143.810547 
	C429.804718,136.036102 433.099518,129.154938 436.810760,122.781059 
	C436.962799,122.938354 437.114838,123.095657 437.124725,123.987328 
	C432.711151,133.531403 432.425598,142.986008 436.941101,152.703995 
	C441.597687,162.725601 450.254761,167.317932 459.991333,170.414886 
	C455.828491,191.461868 451.840149,212.066147 447.664459,232.632370 
	C441.872040,261.161621 435.891815,289.652740 430.091309,318.180389 
	C428.034149,328.297699 428.166931,328.324707 418.052979,329.579895 
	C419.192383,348.147644 427.176910,362.661896 443.807343,371.435608 
	C461.212952,380.618286 478.555847,379.155365 494.392273,367.807953 
	C507.005280,358.770264 513.475220,345.900757 514.006653,329.711395 
	C511.792053,329.711395 510.151764,329.632050 508.521881,329.728760 
	C505.566071,329.904144 503.676880,329.186127 503.944855,325.618958 
	C504.051239,324.202728 503.286438,322.738312 503.037476,321.275574 
	C498.900940,296.969421 494.864471,272.645935 490.639191,248.355270 
	C486.240845,223.069977 481.608307,197.825211 477.303772,172.524353 
	C477.043976,170.997360 478.308380,168.342972 479.653595,167.544922 
	C493.516785,159.320312 498.915314,148.777512 497.014984,132.839569 
	C495.468903,119.872864 482.405914,107.486504 469.459808,106.996971 
	C457.316345,106.537788 445.162323,106.356743 432.483398,105.476112 
	C429.988983,105.652199 427.494568,105.828293 424.077850,106.188034 
	C414.380127,106.085144 404.682434,105.982254 394.802795,105.588600 
	C394.540436,105.684631 394.278076,105.780663 393.486694,106.059753 
	C393.309753,106.119087 393.132843,106.178413 392.085876,106.075348 
	C389.726593,106.000099 387.367279,105.924850 384.779602,105.088013 
	C382.750183,104.725647 380.721008,104.048317 378.691284,104.046585 
	C313.567932,103.991013 248.444565,103.999870 183.321182,104.003151 
	C179.881638,104.003326 176.436646,103.943359 173.007095,104.138504 
	C172.305832,104.178413 171.662613,105.238098 170.168900,105.965912 
	C168.777359,105.968231 167.385818,105.970551 165.536057,105.461700 
M436.757568,436.305054 
	C434.808258,436.139191 432.858948,435.973328 430.121918,435.852051 
	C429.075470,435.918243 428.029053,435.984436 426.500641,435.909546 
	C426.339630,435.955322 426.178619,436.001099 425.265411,435.881439 
	C424.502350,435.939087 423.739319,435.996735 422.056915,435.879730 
	C407.370636,435.905426 392.684326,435.931152 377.264313,435.750092 
	C376.511414,435.813721 375.758484,435.877380 374.145477,435.740387 
	C372.091614,435.800629 370.037781,435.860901 367.256958,435.709778 
	C366.510071,435.777252 365.763153,435.844727 364.111053,435.705597 
	C360.393463,435.756165 356.675903,435.806732 352.189880,435.581451 
	C302.823334,435.386322 253.456818,435.187134 204.090164,435.021667 
	C202.976410,435.017944 201.599548,435.060120 200.808777,435.675934 
	C199.646210,436.581299 198.144516,438.046967 198.181351,439.230621 
	C198.222244,440.544983 199.829102,441.810638 201.317093,443.781128 
	C201.479935,443.816589 201.642761,443.883057 201.805649,443.883179 
	C279.128479,443.941162 356.451294,444.006836 433.774139,444.018555 
	C438.483978,444.019257 439.558624,441.484497 437.014221,436.982758 
	C437.014221,436.982758 437.096436,436.938568 436.757568,436.305054 
M422.930389,65.449722 
	C422.629486,65.352783 422.328583,65.255844 421.383392,64.831268 
	C387.783661,47.883671 354.204254,30.895384 320.524017,14.109310 
	C318.849640,13.274809 315.992706,13.554991 314.205780,14.406310 
	C301.526093,20.447237 288.974396,26.757505 276.396240,33.010773 
	C254.255569,44.018078 232.125092,55.045933 209.279953,66.112343 
	C207.274567,67.157425 205.269180,68.202507 202.643173,69.571014 
	C206.393494,69.571014 209.206146,69.571014 212.863831,69.777695 
	C214.599747,69.731346 216.335663,69.684998 218.982040,69.826370 
	C227.639786,69.810921 236.297546,69.795471 245.642685,69.924095 
	C246.106247,69.878387 246.569794,69.832687 247.954254,69.947075 
	C308.699097,69.947075 369.443970,69.947075 430.188812,69.947075 
	C430.215668,69.633736 430.242493,69.320389 430.269348,69.007050 
	C427.873566,67.967964 425.477814,66.928879 423.020569,65.975784 
	C423.020569,65.975784 423.115204,65.928719 422.930389,65.449722 
M380.125336,364.500000 
	C380.350769,305.684570 380.617218,246.869186 380.712097,188.053558 
	C380.718628,184.011276 381.904358,182.914719 385.830566,183.035141 
	C395.153198,183.321014 404.493561,183.320328 413.817780,183.082764 
	C416.497681,183.014465 419.493805,182.301086 421.736237,180.905457 
	C426.060883,178.213928 426.928528,173.753601 425.640045,169.044449 
	C424.256073,163.986237 419.667023,161.041138 413.225677,161.037079 
	C349.742737,160.997025 286.259827,160.989456 222.776901,161.015976 
	C216.000809,161.018799 210.862335,165.953613 211.018784,171.995728 
	C211.180161,178.227417 216.118500,182.864136 222.824799,182.991440 
	C226.489136,183.061005 230.155914,183.002762 233.821594,183.002640 
	C240.081985,183.002426 246.342361,183.002563 252.947449,183.002563 
	C252.947449,257.390411 252.947449,330.956970 252.947449,404.675323 
	C263.215393,404.675323 273.104858,404.675323 283.375122,404.675323 
	C283.375122,402.697418 283.370789,401.047699 283.375732,399.398010 
	C283.585297,329.251465 283.795685,259.104889 284.006470,188.958344 
	C284.009979,187.792099 283.704590,186.495651 284.116821,185.496658 
	C284.520874,184.517639 285.626923,183.182343 286.479401,183.141479 
	C291.227875,182.913864 295.992950,183.032166 301.247864,183.032166 
	C301.247864,257.444305 301.247864,331.144562 301.247864,404.690430 
	C311.691498,404.690430 321.620239,404.690430 331.996979,404.690430 
	C331.996979,402.416138 331.996277,400.453369 331.997070,398.490631 
	C332.024384,330.508911 332.050232,262.527222 332.080841,194.545502 
	C332.086029,183.033661 332.103485,183.293640 343.626862,182.939926 
	C348.678772,182.784851 350.081757,184.193970 350.048035,189.313766 
	C349.587036,259.291962 349.350708,329.271667 349.060333,399.250977 
	C349.052948,401.032135 349.059387,402.813324 349.059387,404.708801 
	C359.603302,404.708801 369.660706,404.708801 380.123627,404.708801 
	C380.123627,391.434448 380.123627,378.467224 380.125336,364.500000 
M340.500000,79.000587 
	C290.669647,78.992546 240.839310,78.982307 191.008957,78.979095 
	C184.275330,78.978668 181.656052,81.540924 181.987183,87.745453 
	C182.296997,93.550385 185.138916,95.746696 191.571228,95.224548 
	C192.895935,95.117020 194.236435,95.193298 195.569550,95.201599 
	C221.400131,95.362350 247.230499,95.603081 273.061310,95.672615 
	C331.057343,95.828735 389.053619,95.889816 447.049683,96.030853 
	C450.630524,96.039558 453.542542,95.286804 455.052521,91.613182 
	C457.991913,84.461884 454.363953,79.013939 446.493530,79.008881 
	C411.495697,78.986382 376.497833,79.000015 340.500000,79.000587 
M464.807526,459.633820 
	C465.588623,454.588318 464.178802,453.021759 458.600098,453.005310 
	C364.790894,452.728546 270.981628,452.467468 177.172394,452.204895 
	C176.341095,452.202576 175.285492,451.907837 174.722961,452.302765 
	C173.363113,453.257538 171.416504,454.427246 171.237839,455.721710 
	C171.054749,457.048004 172.379074,459.051208 173.624817,459.970703 
	C174.808548,460.844360 176.742844,460.959442 178.348846,460.965759 
	C271.490234,461.333099 364.631775,461.666687 457.773560,461.903534 
	C459.935242,461.909027 462.099792,460.774323 464.807526,459.633820 
M307.500000,426.118317 
	C340.828369,426.285675 374.156677,426.456421 407.485138,426.610229 
	C409.144440,426.617889 411.086670,426.992554 412.392120,426.276154 
	C413.997162,425.395264 416.153107,423.487610 416.079041,422.132629 
	C416.000549,420.696533 413.755096,419.103058 412.126404,418.130188 
	C411.137238,417.539337 409.523804,417.981842 408.190765,417.979980 
	C348.697601,417.896881 289.204437,417.813782 229.711273,417.744080 
	C227.713776,417.741760 225.532791,417.406830 223.774414,418.092041 
	C222.268921,418.678650 220.264389,420.516541 220.275711,421.784973 
	C220.288208,423.185181 222.137451,424.879852 223.587036,425.844849 
	C224.521713,426.467072 226.176788,426.027527 227.509033,426.029175 
	C253.839355,426.061218 280.169678,426.088196 307.500000,426.118317 
M296.477203,612.498413 
	C296.216766,613.099792 295.956329,613.701111 295.616791,614.485168 
	C293.196014,606.627075 290.940826,598.955688 288.411926,591.375549 
	C287.868011,589.745239 286.335632,588.444702 285.258606,586.992249 
	C284.186066,588.385925 282.612915,589.624878 282.125916,591.199585 
	C279.758972,598.853455 277.682892,606.597290 275.383240,614.736084 
	C274.872040,613.475037 274.393158,612.602905 274.160034,611.669373 
	C272.400604,604.623291 270.799042,597.534912 268.873169,590.535461 
	C268.475739,589.091003 266.926178,587.963562 265.907623,586.690002 
	C265.428345,587.031372 264.949036,587.372803 264.469757,587.714172 
	C267.258820,597.920288 270.013489,608.136047 272.896637,618.315552 
	C273.150146,619.210693 274.244293,619.867798 274.947968,620.635437 
	C275.815735,619.827454 276.818848,619.117920 277.503204,618.176697 
	C277.952362,617.558899 277.907379,616.596313 278.140961,615.805054 
	C280.442230,608.010620 282.755524,600.219666 285.351196,591.463684 
	C288.186523,600.864441 290.604065,609.141357 293.251038,617.344238 
	C293.605011,618.441223 295.119568,619.163757 296.096649,620.059753 
	C296.882111,619.181274 298.023743,618.427917 298.384491,617.400330 
	C299.367249,614.600830 300.056915,611.694946 300.796448,608.814209 
	C302.623077,601.698975 304.412659,594.574280 306.217133,587.453430 
	C305.357727,587.172241 304.498291,586.891052 303.638885,586.609924 
	C300.098999,594.555725 298.968292,603.368469 296.477203,612.498413 
M98.442398,616.942017 
	C103.905479,609.490295 104.515327,600.386658 99.994888,593.767029 
	C96.124832,588.099854 86.128456,585.971558 75.980736,588.782837 
	C75.980736,594.016724 75.980736,599.326416 75.980736,604.636108 
	C75.980736,610.049011 75.980736,615.461914 75.980736,621.126892 
	C83.989777,620.741821 91.503036,622.652466 98.442398,616.942017 
M398.012665,586.140198 
	C392.578400,587.136292 388.412415,589.819397 386.441101,595.181335 
	C384.286682,601.041199 384.329010,606.901672 386.940765,612.640137 
	C389.633789,618.557068 396.642609,622.050171 403.022888,620.711792 
	C412.041962,618.819824 416.881836,611.587769 415.992157,601.332275 
	C415.119751,591.275879 409.286011,586.071777 398.012665,586.140198 
M40.839493,610.979858 
	C47.737305,609.702332 53.249889,610.679077 54.793293,618.969116 
	C54.976067,619.950867 56.789097,620.629089 57.846428,621.447998 
	C54.739361,610.446899 50.790085,600.320496 46.721672,590.242310 
	C46.356415,589.337524 45.049614,588.027527 44.479908,588.163391 
	C43.470551,588.403931 42.283962,589.445435 41.880749,590.439514 
	C38.700634,598.279541 35.686462,606.186890 32.625870,614.075378 
	C31.713480,616.427002 30.815830,618.784302 29.911425,621.139038 
	C30.539955,621.462646 31.168488,621.786255 31.797020,622.109863 
	C32.859001,620.275696 33.894100,618.425293 34.989906,616.611572 
	C36.299423,614.444092 35.670692,610.549072 40.839493,610.979858 
M509.576538,585.997131 
	C507.483002,585.997131 505.389465,585.997131 503.398376,585.997131 
	C503.398376,597.637939 503.398376,608.553101 503.398376,619.387573 
	C512.899353,621.022888 520.541748,620.258423 522.197754,616.910400 
	C517.003601,616.910400 512.156799,616.910400 507.451843,616.910400 
	C507.451843,612.100891 507.451843,608.049500 507.451843,604.120483 
	C512.143982,602.991333 516.935669,604.827454 521.028015,602.875854 
	C520.960815,602.217224 520.893616,601.558594 520.826355,600.899963 
	C516.312561,600.899963 511.798706,600.899963 507.328003,600.899963 
	C507.328003,596.584290 507.328003,593.002197 507.328003,589.547424 
	C512.217712,587.802795 517.685120,590.921692 521.945129,587.672180 
	C521.892639,587.114563 521.840210,586.557007 521.787720,585.999390 
	C518.041626,585.999390 514.295532,585.999390 509.576538,585.997131 
M247.922440,620.377686 
	C248.820694,620.377686 249.718933,620.377686 251.005630,620.377686 
	C246.917084,610.107605 243.057022,600.265137 239.037292,590.488220 
	C238.497696,589.175781 237.152237,588.194702 236.179916,587.060181 
	C235.231247,588.265137 233.939102,589.331909 233.389648,590.697510 
	C229.794342,599.633606 226.346542,608.629211 222.891754,617.621216 
	C222.521866,618.583923 222.416931,619.648376 222.189087,620.665649 
	C222.733566,620.922363 223.278030,621.179077 223.822510,621.435791 
	C224.959824,619.266296 225.959930,617.008972 227.276093,614.954041 
	C228.412033,613.180542 229.695023,610.469482 231.278625,610.181213 
	C241.800140,608.265747 243.081360,609.160034 246.963608,619.027893 
	C247.085037,619.336548 247.226852,619.637207 247.922440,620.377686 
M139.615494,610.305542 
	C142.841019,613.250122 141.171082,619.789185 148.011429,621.421387 
	C143.458664,609.985535 139.295563,599.463867 135.042557,588.978638 
	C134.731430,588.211609 133.389832,587.065430 133.175430,587.192139 
	C132.163040,587.790466 130.997665,588.613770 130.571823,589.640808 
	C128.161362,595.454285 125.940300,601.346375 123.668747,607.217224 
	C121.976578,611.590637 120.305649,615.972290 118.625259,620.350281 
	C119.088608,620.654114 119.551949,620.957947 120.015289,621.261841 
	C120.952621,620.307739 122.592407,619.436340 122.715958,618.386536 
	C123.688637,610.121643 129.141891,609.204346 135.805222,609.984253 
	C136.790161,610.099670 137.795868,610.037659 139.615494,610.305542 
M348.338867,599.829407 
	C351.898132,601.840515 355.382446,604.002930 359.040527,605.814514 
	C361.939728,607.250305 364.349640,608.889954 363.843475,612.510010 
	C363.305511,616.357239 360.261719,617.725342 356.997040,617.805969 
	C353.629669,617.889099 350.241058,617.109863 345.815247,616.583374 
	C346.828033,618.057373 347.282104,619.540283 348.128571,619.815125 
	C353.171051,621.452881 358.504639,621.963928 362.964447,618.822815 
	C365.023651,617.372437 366.324890,614.188171 366.965820,611.546509 
	C367.788818,608.154541 365.974823,605.438110 362.703705,603.958252 
	C360.447144,602.937439 358.155457,601.994324 355.881409,601.012024 
	C352.518616,599.559326 349.274139,597.702576 350.628418,593.371338 
	C351.992432,589.008850 355.860199,588.813049 359.670990,589.330322 
	C361.660309,589.600342 363.607452,590.181213 366.083954,590.736023 
	C364.270050,586.154663 358.483734,584.918396 352.630035,587.023438 
	C347.379242,588.911682 345.832581,592.913452 348.338867,599.829407 
M434.416229,607.758423 
	C436.956787,617.585571 441.083282,620.421570 452.309845,620.055847 
	C456.958221,619.904419 456.958221,619.904358 457.598694,616.630493 
	C455.502441,616.753723 453.400299,616.814819 451.311218,617.013184 
	C446.919739,617.430237 443.070953,616.576782 440.309570,612.763306 
	C437.103027,608.335205 437.038757,598.645508 440.232147,593.799011 
	C443.051575,589.520081 448.139862,588.088928 454.933380,589.411438 
	C456.168732,589.651978 457.567566,589.052795 458.890930,588.841248 
	C458.792633,588.065613 458.694305,587.289917 458.595978,586.514282 
	C454.077545,586.514282 449.372864,585.702576 445.080414,586.687439 
	C436.764587,588.595459 433.331085,595.657410 434.416229,607.758423 
M548.269714,610.429749 
	C548.269470,612.255432 548.017273,614.128906 548.351501,615.891174 
	C548.603210,617.218567 549.606567,618.403503 550.275391,619.651855 
	C550.861267,618.335571 551.931519,617.027771 551.954529,615.701721 
	C552.106445,606.956970 552.033020,598.208313 552.033020,588.996826 
	C554.982361,588.996826 557.445496,589.134521 559.878418,588.923462 
	C560.752319,588.847656 561.553345,587.931824 562.387634,587.399414 
	C561.507812,586.913208 560.634949,586.020813 559.747009,586.005554 
	C553.110352,585.891174 546.469666,585.892639 539.833557,586.025269 
	C538.967590,586.042542 538.120728,587.014038 537.265076,587.543579 
	C537.417664,588.022156 537.570251,588.500732 537.722900,588.979309 
	C541.086365,588.979309 544.449890,588.979309 548.270386,588.979309 
	C548.270386,596.245911 548.270386,602.849182 548.269714,610.429749 
M590.104370,612.559631 
	C591.020447,608.956909 591.478760,605.152344 592.958374,601.798218 
	C595.263184,596.573364 598.261353,591.654480 600.965759,586.605896 
	C600.521240,586.292664 600.076721,585.979431 599.632202,585.666138 
	C593.721924,589.317688 593.347107,597.390137 588.161987,602.329224 
	C586.282410,598.867676 584.616455,595.837646 582.985779,592.788757 
	C579.445679,586.170044 579.453003,586.166138 576.087036,586.843323 
	C578.102844,590.537659 580.088257,594.169739 582.067505,597.805054 
	C584.751282,602.734192 587.881897,607.434509 587.067871,613.592041 
	C586.816406,615.494324 588.035034,617.590881 588.580566,619.598511 
	C589.088623,617.555969 589.596680,615.513367 590.104370,612.559631 
M193.001572,597.530396 
	C193.000046,594.867004 193.243301,592.169556 192.878815,589.556763 
	C192.729019,588.482849 191.269989,587.591492 190.406479,586.617126 
	C190.093613,586.918091 189.780762,587.219055 189.467896,587.520020 
	C189.467896,598.566223 189.467896,609.612427 189.467896,620.998962 
	C195.104355,620.998962 200.246948,621.070984 205.383667,620.929199 
	C206.255035,620.905151 207.101028,619.962585 207.958725,619.444397 
	C207.102859,618.925598 206.263947,617.994873 205.388214,617.958801 
	C201.443344,617.796570 197.488037,617.888062 193.002563,617.888062 
	C193.002563,611.084412 193.002563,604.803772 193.001572,597.530396 
M477.983368,611.434509 
	C477.974670,619.584106 477.974670,619.584106 481.245544,619.466553 
	C481.245544,609.044373 481.275146,598.632751 481.179413,588.222229 
	C481.173004,587.522827 480.218719,586.832092 479.705292,586.137390 
	C479.133881,586.927795 478.080597,587.709656 478.066315,588.510010 
	C477.935944,595.821228 477.986237,603.135681 477.983368,611.434509 
M560.678772,132.859924 
	C559.830139,131.543060 558.981506,130.226212 558.132874,128.909348 
	C557.700012,129.212708 557.267090,129.516083 556.834167,129.819443 
	C558.836792,132.970581 558.959961,137.300888 562.721497,139.348480 
	C563.200684,139.070786 563.679871,138.793091 564.158997,138.515396 
	C563.197388,136.773529 562.235840,135.031662 560.678772,132.859924 
z"/>
<path fill="#366278" opacity="1.000000" stroke="none" 
	d="
M145.064453,155.835938 
	C145.064453,155.835938 145.019318,155.393234 144.844696,154.850739 
	C138.165802,143.669434 138.694092,132.888184 144.015854,122.009842 
	C144.329590,121.559967 144.643326,121.110100 145.300598,120.224564 
	C149.762253,116.187416 153.880371,112.585938 157.998505,108.984467 
	C158.795319,108.677887 159.592133,108.371315 160.973969,107.996902 
	C161.939789,107.901482 162.320587,107.873886 163.152420,107.889511 
	C175.045151,107.622635 186.486511,107.060249 197.928619,107.044357 
	C261.003906,106.956779 324.079346,107.009445 387.154724,106.970619 
	C389.088623,106.969429 391.022217,106.492744 392.955963,106.237747 
	C393.132843,106.178413 393.309753,106.119087 393.993256,106.032806 
	C394.661438,105.963692 394.823059,105.921532 394.984711,105.879364 
	C404.682434,105.982254 414.380127,106.085144 424.974792,106.196503 
	C428.252136,106.154419 430.632568,106.103867 433.012970,106.053307 
	C445.162323,106.356743 457.316345,106.537788 469.459808,106.996971 
	C482.405914,107.486504 495.468903,119.872864 497.014984,132.839569 
	C498.915314,148.777512 493.516785,159.320312 479.653595,167.544922 
	C478.308380,168.342972 477.043976,170.997360 477.303772,172.524353 
	C481.608307,197.825211 486.240845,223.069977 490.639191,248.355270 
	C494.864471,272.645935 498.900940,296.969421 503.037476,321.275574 
	C503.286438,322.738312 504.051239,324.202728 503.944855,325.618958 
	C503.676880,329.186127 505.566071,329.904144 508.521881,329.728760 
	C510.151764,329.632050 511.792053,329.711395 514.006653,329.711395 
	C513.475220,345.900757 507.005280,358.770264 494.392273,367.807953 
	C478.555847,379.155365 461.212952,380.618286 443.807343,371.435608 
	C427.176910,362.661896 419.192383,348.147644 418.052979,329.579895 
	C428.166931,328.324707 428.034149,328.297699 430.091309,318.180389 
	C435.891815,289.652740 441.872040,261.161621 447.664459,232.632370 
	C451.840149,212.066147 455.828491,191.461868 459.991333,170.414886 
	C450.254761,167.317932 441.597687,162.725601 436.941101,152.703995 
	C432.425598,142.986008 432.711151,133.531403 437.452087,123.430527 
	C438.169464,122.093513 438.559509,121.313301 438.949554,120.533096 
	C438.740448,120.421562 438.531342,120.310020 438.322235,120.198486 
	C437.679596,120.890251 437.036957,121.582016 436.394348,122.273773 
	C433.099518,129.154938 429.804718,136.036102 426.082184,143.810547 
	C355.113953,143.810547 282.386261,143.810547 209.275284,143.810547 
	C209.039734,136.058411 206.929337,128.924957 201.691986,122.267235 
	C200.156921,120.524979 199.077805,119.263252 197.945374,117.742683 
	C197.690323,117.523552 197.488632,117.563271 197.286926,117.602997 
	C197.527969,117.730515 197.769028,117.858047 197.856873,118.312836 
	C198.732803,120.159065 199.761948,121.678024 200.791077,123.196983 
	C206.044098,135.433975 205.143463,146.942902 197.134613,157.861038 
	C193.197128,163.228882 187.953232,166.364914 181.792130,168.180740 
	C178.663315,169.102875 177.791107,170.543182 178.396057,173.937714 
	C183.419586,202.127258 188.166992,230.365845 193.101379,258.571503 
	C196.579773,278.454529 200.234238,298.306732 203.773178,318.179260 
	C204.378342,321.577576 204.797699,325.008942 205.360199,328.812469 
	C208.453873,328.812469 211.383759,328.812469 215.094376,328.812469 
	C214.087875,345.205139 208.066025,358.450195 194.820023,367.564484 
	C178.351517,378.896149 160.901794,379.727539 143.292755,370.138763 
	C128.479797,362.072540 117.990280,343.879486 119.416534,329.079895 
	C122.314629,329.079895 125.258530,329.079895 128.693710,329.079895 
	C131.155914,317.068756 133.572632,305.317047 135.973114,293.562012 
	C141.894257,264.566467 147.823776,235.572632 153.716934,206.571411 
	C156.116791,194.761337 158.517883,182.949509 160.653366,171.090759 
	C160.872330,169.874847 159.590118,167.929581 158.449265,167.016373 
	C155.372696,164.553696 151.996017,162.465927 148.355988,159.767960 
	C147.003830,158.149673 146.034149,156.992813 145.064453,155.835938 
M486.530334,257.990021 
	C481.504028,228.759766 476.477692,199.529495 471.437286,170.217316 
	C467.806671,170.174057 465.650208,170.490753 464.876038,174.400101 
	C457.783722,210.213715 450.472931,245.984070 443.233612,281.768616 
	C440.078766,297.363220 436.941925,312.961456 433.683197,329.121765 
	C455.549042,329.121765 476.914917,329.121765 498.809265,329.121765 
	C494.771423,305.519196 490.777313,282.172424 486.530334,257.990021 
M195.941528,306.587494 
	C194.308533,297.438782 192.633179,288.297424 191.050064,279.140076 
	C185.027878,244.305511 178.956268,209.479034 173.126541,174.612183 
	C172.348282,169.957520 170.419693,169.222015 166.560089,170.562729 
	C155.893036,223.356766 145.277359,275.896545 134.600632,328.738556 
	C156.725723,328.738556 177.834641,328.738556 199.583572,328.738556 
	C198.350357,321.427856 197.171692,314.440613 195.941528,306.587494 
z"/>
<path fill="#356278" opacity="1.000000" stroke="none" 
	d="
M380.124481,365.000000 
	C380.123627,378.467224 380.123627,391.434448 380.123627,404.708801 
	C369.660706,404.708801 359.603302,404.708801 349.059387,404.708801 
	C349.059387,402.813324 349.052948,401.032135 349.060333,399.250977 
	C349.350708,329.271667 349.587036,259.291962 350.048035,189.313766 
	C350.081757,184.193970 348.678772,182.784851 343.626862,182.939926 
	C332.103485,183.293640 332.086029,183.033661 332.080841,194.545502 
	C332.050232,262.527222 332.024384,330.508911 331.997070,398.490631 
	C331.996277,400.453369 331.996979,402.416138 331.996979,404.690430 
	C321.620239,404.690430 311.691498,404.690430 301.247864,404.690430 
	C301.247864,331.144562 301.247864,257.444305 301.247864,183.032166 
	C295.992950,183.032166 291.227875,182.913864 286.479401,183.141479 
	C285.626923,183.182343 284.520874,184.517639 284.116821,185.496658 
	C283.704590,186.495651 284.009979,187.792099 284.006470,188.958344 
	C283.795685,259.104889 283.585297,329.251465 283.375732,399.398010 
	C283.370789,401.047699 283.375122,402.697418 283.375122,404.675323 
	C273.104858,404.675323 263.215393,404.675323 252.947449,404.675323 
	C252.947449,330.956970 252.947449,257.390411 252.947449,183.002563 
	C246.342361,183.002563 240.081985,183.002426 233.821594,183.002640 
	C230.155914,183.002762 226.489136,183.061005 222.824799,182.991440 
	C216.118500,182.864136 211.180161,178.227417 211.018784,171.995728 
	C210.862335,165.953613 216.000809,161.018799 222.776901,161.015976 
	C286.259827,160.989456 349.742737,160.997025 413.225677,161.037079 
	C419.667023,161.041138 424.256073,163.986237 425.640045,169.044449 
	C426.928528,173.753601 426.060883,178.213928 421.736237,180.905457 
	C419.493805,182.301086 416.497681,183.014465 413.817780,183.082764 
	C404.493561,183.320328 395.153198,183.321014 385.830566,183.035141 
	C381.904358,182.914719 380.718628,184.011276 380.712097,188.053558 
	C380.617218,246.869186 380.350769,305.684570 380.124481,365.000000 
z"/>
<path fill="#AC4B60" opacity="1.000000" stroke="none" 
	d="
M570.926758,149.993591 
	C570.926758,149.993591 571.143127,150.216278 571.175171,150.671616 
	C571.463379,151.420883 571.719543,151.714828 571.975708,152.008759 
	C572.301941,152.474167 572.628174,152.939590 572.765930,153.869507 
	C573.081665,154.870987 573.585815,155.407959 574.090027,155.944931 
	C574.090027,155.944931 574.017822,155.996796 574.042969,156.271698 
	C574.430115,157.011551 574.792053,157.476471 575.153992,157.941406 
	C575.153992,157.941406 575.064514,157.947098 575.127563,158.139435 
	C575.337158,158.635330 575.563782,158.857147 575.870361,158.997192 
	C575.870361,158.997192 576.055786,159.360352 576.118286,159.812164 
	C576.406616,160.505966 576.632446,160.747971 576.858337,160.989960 
	C576.858337,160.989960 577.051697,161.365524 577.063232,161.899292 
	C577.401001,162.949738 577.727173,163.466400 578.053406,163.983063 
	C578.053406,163.983063 577.995422,163.987061 578.013184,164.262695 
	C578.323730,165.021103 578.616638,165.503906 578.909485,165.986710 
	C578.909485,165.986710 579.123840,166.281464 579.114075,166.815109 
	C579.484680,167.873169 579.864990,168.397583 580.245300,168.921997 
	C589.849243,188.907684 595.923035,210.021973 599.854187,231.752396 
	C603.833923,253.751251 605.390320,276.023651 603.814697,298.292389 
	C601.556091,330.214600 594.408081,361.077667 581.881470,390.692657 
	C568.923340,421.327606 551.040771,448.584412 528.577515,473.070892 
	C503.300842,500.624207 473.901398,522.527954 440.113342,538.316406 
	C415.878937,549.640686 390.473053,557.704346 363.973328,561.944641 
	C339.747925,565.821045 315.400879,567.377563 290.922272,564.933594 
	C257.828217,561.629395 226.102325,553.198975 195.869141,539.245422 
	C164.729355,524.873413 136.992508,505.339020 113.049820,481.069550 
	C74.809616,442.307373 49.299091,396.137360 37.060616,342.834808 
	C32.123501,321.332031 30.153164,299.476898 30.248363,277.562714 
	C30.444334,232.451706 41.815742,190.025177 63.880981,150.181641 
	C64.738708,151.234955 65.223030,152.440842 65.130653,153.600784 
	C64.956001,155.793823 64.449951,157.960464 64.081619,160.138077 
	C60.228531,173.137024 55.888256,186.014969 52.623608,199.160065 
	C45.792336,226.666107 44.303421,254.855225 46.328518,282.887543 
	C50.432758,339.700470 70.358185,391.004059 106.309540,435.190918 
	C146.730209,484.870972 198.542740,517.171387 261.412292,530.964294 
	C287.742188,536.740723 314.440216,538.404114 341.235046,535.856873 
	C391.521790,531.076355 437.614380,514.579285 478.297546,484.289703 
	C528.085083,447.221649 561.540955,398.672302 578.840332,339.044403 
	C585.156311,317.274475 588.463867,295.030151 589.161621,272.370056 
	C590.345093,233.935196 584.616089,196.691666 570.361755,160.865479 
	C569.461060,158.601791 568.946472,156.184494 568.036560,153.272644 
	C567.685730,152.395859 567.467285,152.163483 567.165405,152.009506 
	C567.165405,152.009506 566.993164,151.560150 566.994995,150.930817 
	C565.924866,148.237457 564.852966,146.173462 563.781067,144.109467 
	C563.781067,144.109467 563.881958,144.077637 563.885803,143.798447 
	C563.526428,143.034958 563.163147,142.550659 562.799927,142.066360 
	C561.632751,140.112228 561.153992,138.528244 564.766479,139.737778 
	C565.535339,141.013382 565.997559,141.530273 566.459717,142.047180 
	C567.319702,143.397903 568.179626,144.748611 569.118042,146.673370 
	C569.433777,147.496948 569.671143,147.746521 569.908447,147.996094 
	C569.908447,147.996094 570.118591,148.280701 570.158630,148.733994 
	C570.441345,149.456055 570.684021,149.724823 570.926758,149.993591 
z"/>
<path fill="#346178" opacity="1.000000" stroke="none" 
	d="
M218.071579,69.638657 
	C216.335663,69.684998 214.599747,69.731346 212.361115,69.386368 
	C211.235718,68.018425 210.613022,67.041809 209.990341,66.065186 
	C232.125092,55.045933 254.255569,44.018078 276.396240,33.010773 
	C288.974396,26.757505 301.526093,20.447237 314.205780,14.406310 
	C315.992706,13.554991 318.849640,13.274809 320.524017,14.109310 
	C354.204254,30.895384 387.783661,47.883671 421.835602,65.187088 
	C422.516327,65.772842 422.792114,65.901451 423.115204,65.928719 
	C423.115204,65.928719 423.020569,65.975784 422.980682,66.318031 
	C421.156372,67.349953 419.417450,68.387100 417.574310,68.628563 
	C415.837769,68.856056 413.991547,68.035172 412.193329,68.033775 
	C363.031189,67.995682 313.868835,67.943741 264.707062,68.082390 
	C258.814270,68.099007 252.924515,69.192581 247.033356,69.786987 
	C246.569794,69.832687 246.106247,69.878387 244.971313,69.606873 
	C235.557159,69.405991 226.814377,69.522324 218.071579,69.638657 
z"/>
<path fill="#366277" opacity="1.000000" stroke="none" 
	d="
M341.000000,79.000587 
	C376.497833,79.000015 411.495697,78.986382 446.493530,79.008881 
	C454.363953,79.013939 457.991913,84.461884 455.052521,91.613182 
	C453.542542,95.286804 450.630524,96.039558 447.049683,96.030853 
	C389.053619,95.889816 331.057343,95.828735 273.061310,95.672615 
	C247.230499,95.603081 221.400131,95.362350 195.569550,95.201599 
	C194.236435,95.193298 192.895935,95.117020 191.571228,95.224548 
	C185.138916,95.746696 182.296997,93.550385 181.987183,87.745453 
	C181.656052,81.540924 184.275330,78.978668 191.008957,78.979095 
	C240.839310,78.982307 290.669647,78.992546 341.000000,79.000587 
z"/>
<path fill="#396378" opacity="1.000000" stroke="none" 
	d="
M464.535278,459.902618 
	C462.099792,460.774323 459.935242,461.909027 457.773560,461.903534 
	C364.631775,461.666687 271.490234,461.333099 178.348846,460.965759 
	C176.742844,460.959442 174.808548,460.844360 173.624817,459.970703 
	C172.379074,459.051208 171.054749,457.048004 171.237839,455.721710 
	C171.416504,454.427246 173.363113,453.257538 174.722961,452.302765 
	C175.285492,451.907837 176.341095,452.202576 177.172394,452.204895 
	C270.981628,452.467468 364.790894,452.728546 458.600098,453.005310 
	C464.178802,453.021759 465.588623,454.588318 464.535278,459.902618 
z"/>
<path fill="#376378" opacity="1.000000" stroke="none" 
	d="
M200.754150,443.097504 
	C199.829102,441.810638 198.222244,440.544983 198.181351,439.230621 
	C198.144516,438.046967 199.646210,436.581299 200.808777,435.675934 
	C201.599548,435.060120 202.976410,435.017944 204.090164,435.021667 
	C253.456818,435.187134 302.823334,435.386322 352.850586,436.033722 
	C357.346252,436.294739 361.181274,436.103485 365.016266,435.912201 
	C365.763153,435.844727 366.510071,435.777252 367.873138,436.105164 
	C370.661407,436.314056 372.833496,436.127563 375.005585,435.941040 
	C375.758484,435.877380 376.511414,435.813721 377.923126,436.153381 
	C392.970856,436.656036 407.359772,436.762054 421.748871,436.820831 
	C422.156952,436.822479 422.567078,436.321198 422.976257,436.054413 
	C423.739319,435.996735 424.502350,435.939087 425.728302,436.119904 
	C426.454987,436.255768 426.718811,436.153198 426.982605,436.050598 
	C428.029053,435.984436 429.075470,435.918243 430.771484,436.140747 
	C433.312836,436.599121 435.204620,436.768860 437.096436,436.938568 
	C437.096436,436.938568 437.014221,436.982758 437.011871,437.338501 
	C436.665375,441.864105 434.347412,443.125275 430.288574,443.072144 
	C415.986481,442.884979 401.680481,442.992065 387.375946,442.999084 
	C325.168671,443.029663 262.961426,443.064301 200.754150,443.097504 
z"/>
<path fill="#386176" opacity="1.000000" stroke="none" 
	d="
M307.000000,426.117249 
	C280.169678,426.088196 253.839355,426.061218 227.509033,426.029175 
	C226.176788,426.027527 224.521713,426.467072 223.587036,425.844849 
	C222.137451,424.879852 220.288208,423.185181 220.275711,421.784973 
	C220.264389,420.516541 222.268921,418.678650 223.774414,418.092041 
	C225.532791,417.406830 227.713776,417.741760 229.711273,417.744080 
	C289.204437,417.813782 348.697601,417.896881 408.190765,417.979980 
	C409.523804,417.981842 411.137238,417.539337 412.126404,418.130188 
	C413.755096,419.103058 416.000549,420.696533 416.079041,422.132629 
	C416.153107,423.487610 413.997162,425.395264 412.392120,426.276154 
	C411.086670,426.992554 409.144440,426.617889 407.485138,426.610229 
	C374.156677,426.456421 340.828369,426.285675 307.000000,426.117249 
z"/>
<path fill="#A4576A" opacity="1.000000" stroke="none" 
	d="
M296.610748,612.143127 
	C298.968292,603.368469 300.098999,594.555725 303.638885,586.609924 
	C304.498291,586.891052 305.357727,587.172241 306.217133,587.453430 
	C304.412659,594.574280 302.623077,601.698975 300.796448,608.814209 
	C300.056915,611.694946 299.367249,614.600830 298.384491,617.400330 
	C298.023743,618.427917 296.882111,619.181274 296.096649,620.059753 
	C295.119568,619.163757 293.605011,618.441223 293.251038,617.344238 
	C290.604065,609.141357 288.186523,600.864441 285.351196,591.463684 
	C282.755524,600.219666 280.442230,608.010620 278.140961,615.805054 
	C277.907379,616.596313 277.952362,617.558899 277.503204,618.176697 
	C276.818848,619.117920 275.815735,619.827454 274.947998,620.635437 
	C274.244293,619.867798 273.150146,619.210693 272.896637,618.315552 
	C270.013489,608.136047 267.258820,597.920288 264.469757,587.714172 
	C264.949036,587.372803 265.428345,587.031372 265.907623,586.690002 
	C266.926178,587.963562 268.475739,589.091003 268.873169,590.535461 
	C270.799042,597.534912 272.400604,604.623291 274.160034,611.669373 
	C274.393158,612.602905 274.872040,613.475037 275.383240,614.736084 
	C277.682892,606.597290 279.758972,598.853455 282.125916,591.199585 
	C282.612915,589.624878 284.186066,588.385925 285.258606,586.992249 
	C286.335632,588.444702 287.868011,589.745239 288.411926,591.375549 
	C290.940826,598.955688 293.196014,606.627075 295.616791,614.485168 
	C295.956329,613.701111 296.216766,613.099792 296.610748,612.143127 
z"/>
<path fill="#EEF9FC" opacity="1.000000" stroke="none" 
	d="
M170.992630,105.827698 
	C171.662613,105.238098 172.305832,104.178413 173.007095,104.138504 
	C176.436646,103.943359 179.881638,104.003326 183.321182,104.003151 
	C248.444565,103.999870 313.567932,103.991013 378.691284,104.046585 
	C380.721008,104.048317 382.750183,104.725647 384.429138,105.541267 
	C314.709991,105.993385 245.341293,105.993393 175.972580,105.984283 
	C174.312592,105.984070 172.652618,105.882172 170.992630,105.827698 
z"/>
<path fill="#426371" opacity="1.000000" stroke="none" 
	d="
M247.493805,69.867035 
	C252.924515,69.192581 258.814270,68.099007 264.707062,68.082390 
	C313.868835,67.943741 363.031189,67.995682 412.193329,68.033775 
	C413.991547,68.035172 415.837769,68.856056 417.574310,68.628563 
	C419.417450,68.387100 421.156372,67.349953 423.011414,66.275040 
	C425.477814,66.928879 427.873566,67.967964 430.269348,69.007050 
	C430.242493,69.320389 430.215668,69.633736 430.188812,69.947075 
	C369.443970,69.947075 308.699097,69.947075 247.493805,69.867035 
z"/>
<path fill="#A4576C" opacity="1.000000" stroke="none" 
	d="
M98.139557,617.164185 
	C91.503036,622.652466 83.989777,620.741821 75.980736,621.126892 
	C75.980736,615.461914 75.980736,610.049011 75.980736,604.636108 
	C75.980736,599.326416 75.980736,594.016724 75.980736,588.782837 
	C86.128456,585.971558 96.124832,588.099854 99.994888,593.767029 
	C104.515327,600.386658 103.905479,609.490295 98.139557,617.164185 
M96.588280,595.081604 
	C91.998482,589.695679 86.052773,590.648376 80.049820,591.169434 
	C80.049820,600.282959 80.049820,609.002014 80.049820,617.640564 
	C90.739235,619.335083 97.620064,616.294861 98.584465,608.769531 
	C99.124313,604.557007 97.617294,600.082214 96.588280,595.081604 
z"/>
<path fill="#A5586B" opacity="1.000000" stroke="none" 
	d="
M398.431366,586.090332 
	C409.286011,586.071777 415.119751,591.275879 415.992157,601.332275 
	C416.881836,611.587769 412.041962,618.819824 403.022888,620.711792 
	C396.642609,622.050171 389.633789,618.557068 386.940765,612.640137 
	C384.329010,606.901672 384.286682,601.041199 386.441101,595.181335 
	C388.412415,589.819397 392.578400,587.136292 398.431366,586.090332 
M399.711914,617.874390 
	C407.084686,617.167847 410.353851,615.237610 411.322357,609.259155 
	C412.015686,604.979187 411.776825,600.283386 410.762207,596.059326 
	C409.526276,590.914001 403.661255,588.184998 398.452332,589.318848 
	C392.395020,590.637329 389.264221,594.501770 389.007629,600.976746 
	C388.572906,611.947021 390.463348,615.151367 399.711914,617.874390 
z"/>
<path fill="#A55B6C" opacity="1.000000" stroke="none" 
	d="
M40.392067,610.986633 
	C35.670692,610.549072 36.299423,614.444092 34.989906,616.611572 
	C33.894100,618.425293 32.859001,620.275696 31.797020,622.109863 
	C31.168488,621.786255 30.539955,621.462646 29.911425,621.139038 
	C30.815830,618.784302 31.713480,616.427002 32.625870,614.075378 
	C35.686462,606.186890 38.700634,598.279541 41.880749,590.439514 
	C42.283962,589.445435 43.470551,588.403931 44.479908,588.163391 
	C45.049614,588.027527 46.356415,589.337524 46.721672,590.242310 
	C50.790085,600.320496 54.739361,610.446899 57.846428,621.447998 
	C56.789097,620.629089 54.976067,619.950867 54.793293,618.969116 
	C53.249889,610.679077 47.737305,609.702332 40.392067,610.986633 
M39.769047,604.367554 
	C38.751884,606.380249 38.578274,607.909668 41.596550,607.845459 
	C44.210716,607.789856 46.827007,607.833984 50.175472,607.833984 
	C48.167095,602.303162 46.399525,597.435486 44.356880,591.810242 
	C42.730194,596.208008 41.363171,599.903809 39.769047,604.367554 
z"/>
<path fill="#A85D71" opacity="1.000000" stroke="none" 
	d="
M510.062988,585.998291 
	C514.295532,585.999390 518.041626,585.999390 521.787720,585.999390 
	C521.840210,586.557007 521.892639,587.114563 521.945129,587.672180 
	C517.685120,590.921692 512.217712,587.802795 507.328003,589.547424 
	C507.328003,593.002197 507.328003,596.584290 507.328003,600.899963 
	C511.798706,600.899963 516.312561,600.899963 520.826355,600.899963 
	C520.893616,601.558594 520.960815,602.217224 521.028015,602.875854 
	C516.935669,604.827454 512.143982,602.991333 507.451843,604.120483 
	C507.451843,608.049500 507.451843,612.100891 507.451843,616.910400 
	C512.156799,616.910400 517.003601,616.910400 522.197754,616.910400 
	C520.541748,620.258423 512.899353,621.022888 503.398376,619.387573 
	C503.398376,608.553101 503.398376,597.637939 503.398376,585.997131 
	C505.389465,585.997131 507.483002,585.997131 510.062988,585.998291 
z"/>
<path fill="#A4586B" opacity="1.000000" stroke="none" 
	d="
M247.640808,620.159668 
	C247.226852,619.637207 247.085037,619.336548 246.963608,619.027893 
	C243.081360,609.160034 241.800140,608.265747 231.278625,610.181213 
	C229.695023,610.469482 228.412033,613.180542 227.276093,614.954041 
	C225.959930,617.008972 224.959824,619.266296 223.822510,621.435791 
	C223.278030,621.179077 222.733566,620.922363 222.189087,620.665649 
	C222.416931,619.648376 222.521866,618.583923 222.891754,617.621216 
	C226.346542,608.629211 229.794342,599.633606 233.389648,590.697510 
	C233.939102,589.331909 235.231247,588.265137 236.179932,587.060181 
	C237.152237,588.194702 238.497696,589.175781 239.037292,590.488220 
	C243.057022,600.265137 246.917084,610.107605 251.005630,620.377686 
	C249.718933,620.377686 248.820694,620.377686 247.640808,620.159668 
M232.685944,601.217102 
	C232.083237,602.958496 231.480530,604.699890 230.815872,606.620300 
	C234.902878,606.620300 238.250183,606.620300 242.039047,606.620300 
	C240.155258,601.535339 238.441086,596.908264 236.341904,591.241943 
	C234.958496,595.018799 233.958694,597.748352 232.685944,601.217102 
z"/>
<path fill="#A55B6D" opacity="1.000000" stroke="none" 
	d="
M139.203735,610.181641 
	C137.795868,610.037659 136.790161,610.099670 135.805222,609.984253 
	C129.141891,609.204346 123.688637,610.121643 122.715958,618.386536 
	C122.592407,619.436340 120.952621,620.307739 120.015289,621.261841 
	C119.551949,620.957947 119.088608,620.654114 118.625259,620.350281 
	C120.305649,615.972290 121.976578,611.590637 123.668747,607.217224 
	C125.940300,601.346375 128.161362,595.454285 130.571823,589.640808 
	C130.997665,588.613770 132.163040,587.790466 133.175430,587.192139 
	C133.389832,587.065430 134.731430,588.211609 135.042557,588.978638 
	C139.295563,599.463867 143.458664,609.985535 148.011429,621.421387 
	C141.171082,619.789185 142.841019,613.250122 139.203735,610.181641 
M134.484070,595.051270 
	C134.099350,594.065308 133.714615,593.079346 132.934845,591.081055 
	C130.823105,596.925415 129.074005,601.766052 127.248459,606.818298 
	C131.266708,606.818298 134.794312,606.818298 138.816605,606.818298 
	C137.359543,602.837097 136.065445,599.301086 134.484070,595.051270 
z"/>
<path fill="#3F5E6C" opacity="1.000000" stroke="none" 
	d="
M201.035614,443.439331 
	C262.961426,443.064301 325.168671,443.029663 387.375946,442.999084 
	C401.680481,442.992065 415.986481,442.884979 430.288574,443.072144 
	C434.347412,443.125275 436.665375,441.864105 437.035797,437.298462 
	C439.558624,441.484497 438.483978,444.019257 433.774139,444.018555 
	C356.451294,444.006836 279.128479,443.941162 201.805649,443.883179 
	C201.642761,443.883057 201.479935,443.816589 201.035614,443.439331 
z"/>
<path fill="#A55B6E" opacity="1.000000" stroke="none" 
	d="
M348.139435,599.493774 
	C345.832581,592.913452 347.379242,588.911682 352.630035,587.023438 
	C358.483734,584.918396 364.270050,586.154663 366.083954,590.736023 
	C363.607452,590.181213 361.660309,589.600342 359.670990,589.330322 
	C355.860199,588.813049 351.992432,589.008850 350.628418,593.371338 
	C349.274139,597.702576 352.518616,599.559326 355.881409,601.012024 
	C358.155457,601.994324 360.447144,602.937439 362.703705,603.958252 
	C365.974823,605.438110 367.788818,608.154541 366.965820,611.546509 
	C366.324890,614.188171 365.023651,617.372437 362.964447,618.822815 
	C358.504639,621.963928 353.171051,621.452881 348.128571,619.815125 
	C347.282104,619.540283 346.828033,618.057373 345.815247,616.583374 
	C350.241058,617.109863 353.629669,617.889099 356.997040,617.805969 
	C360.261719,617.725342 363.305511,616.357239 363.843475,612.510010 
	C364.349640,608.889954 361.939728,607.250305 359.040527,605.814514 
	C355.382446,604.002930 351.898132,601.840515 348.139435,599.493774 
z"/>
<path fill="#435F6C" opacity="1.000000" stroke="none" 
	d="
M170.580765,105.896805 
	C172.652618,105.882172 174.312592,105.984070 175.972580,105.984283 
	C245.341293,105.993393 314.709991,105.993385 384.543335,105.922058 
	C387.367279,105.924850 389.726593,106.000099 392.520935,106.156548 
	C391.022217,106.492744 389.088623,106.969429 387.154724,106.970619 
	C324.079346,107.009445 261.003906,106.956779 197.928619,107.044357 
	C186.486511,107.060249 175.045151,107.622635 163.340591,107.615463 
	C164.049911,106.856415 165.022095,106.414635 165.994278,105.972862 
	C167.385818,105.970551 168.777359,105.968231 170.580765,105.896805 
z"/>
<path fill="#A35A6C" opacity="1.000000" stroke="none" 
	d="
M434.302216,607.348755 
	C433.331085,595.657410 436.764587,588.595459 445.080414,586.687439 
	C449.372864,585.702576 454.077545,586.514282 458.595978,586.514282 
	C458.694305,587.289917 458.792633,588.065613 458.890930,588.841248 
	C457.567566,589.052795 456.168732,589.651978 454.933380,589.411438 
	C448.139862,588.088928 443.051575,589.520081 440.232147,593.799011 
	C437.038757,598.645508 437.103027,608.335205 440.309570,612.763306 
	C443.070953,616.576782 446.919739,617.430237 451.311218,617.013184 
	C453.400299,616.814819 455.502441,616.753723 457.598694,616.629517 
	C456.958221,619.904358 456.958221,619.904419 452.309845,620.055847 
	C441.083282,620.421570 436.956787,617.585571 434.302216,607.348755 
z"/>
<path fill="#A66072" opacity="1.000000" stroke="none" 
	d="
M548.270020,609.941101 
	C548.270386,602.849182 548.270386,596.245911 548.270386,588.979309 
	C544.449890,588.979309 541.086365,588.979309 537.722900,588.979309 
	C537.570251,588.500732 537.417664,588.022156 537.265076,587.543579 
	C538.120728,587.014038 538.967590,586.042542 539.833557,586.025269 
	C546.469666,585.892639 553.110352,585.891174 559.747009,586.005554 
	C560.634949,586.020813 561.507812,586.913208 562.387634,587.399414 
	C561.553345,587.931824 560.752319,588.847656 559.878418,588.923462 
	C557.445496,589.134521 554.982361,588.996826 552.033020,588.996826 
	C552.033020,598.208313 552.106445,606.956970 551.954529,615.701721 
	C551.931519,617.027771 550.861267,618.335571 550.275391,619.651855 
	C549.606567,618.403503 548.603210,617.218567 548.351501,615.891174 
	C548.017273,614.128906 548.269470,612.255432 548.270020,609.941101 
z"/>
<path fill="#A3596C" opacity="1.000000" stroke="none" 
	d="
M590.104614,613.015259 
	C589.596680,615.513367 589.088623,617.555969 588.580566,619.598511 
	C588.035034,617.590881 586.816406,615.494324 587.067871,613.592041 
	C587.881897,607.434509 584.751282,602.734192 582.067505,597.805054 
	C580.088257,594.169739 578.102844,590.537659 576.087036,586.843323 
	C579.453003,586.166138 579.445679,586.170044 582.985779,592.788757 
	C584.616455,595.837646 586.282410,598.867676 588.161987,602.329224 
	C593.347107,597.390137 593.721924,589.317688 599.632202,585.666138 
	C600.076721,585.979431 600.521240,586.292664 600.965759,586.605896 
	C598.261353,591.654480 595.263184,596.573364 592.958374,601.798218 
	C591.478760,605.152344 591.020447,608.956909 590.104614,613.015259 
z"/>
<path fill="#AB5B73" opacity="1.000000" stroke="none" 
	d="
M193.002075,598.026733 
	C193.002563,604.803772 193.002563,611.084412 193.002563,617.888062 
	C197.488037,617.888062 201.443344,617.796570 205.388214,617.958801 
	C206.263947,617.994873 207.102859,618.925598 207.958740,619.444397 
	C207.101028,619.962585 206.255035,620.905151 205.383667,620.929199 
	C200.246948,621.070984 195.104355,620.998962 189.467896,620.998962 
	C189.467896,609.612427 189.467896,598.566223 189.467896,587.520020 
	C189.780762,587.219055 190.093613,586.918091 190.406479,586.617126 
	C191.269989,587.591492 192.729019,588.482849 192.878815,589.556763 
	C193.243301,592.169556 193.000046,594.867004 193.002075,598.026733 
z"/>
<path fill="#A3596A" opacity="1.000000" stroke="none" 
	d="
M64.347565,159.894440 
	C64.449951,157.960464 64.956001,155.793823 65.130653,153.600784 
	C65.223030,152.440842 64.738708,151.234955 64.151352,149.973907 
	C69.478134,140.526291 75.168304,131.154572 81.299805,121.773109 
	C81.876129,121.883957 82.011139,122.004578 82.146133,122.125191 
	C76.578056,133.858170 71.005920,145.589233 65.451553,157.328705 
	C65.101227,158.069153 64.889648,158.875244 64.347565,159.894440 
z"/>
<path fill="#9F5367" opacity="1.000000" stroke="none" 
	d="
M477.983582,610.941833 
	C477.986237,603.135681 477.935944,595.821228 478.066315,588.510010 
	C478.080597,587.709656 479.133881,586.927795 479.705322,586.137390 
	C480.218719,586.832092 481.173004,587.522827 481.179413,588.222229 
	C481.275146,598.632751 481.245544,609.044373 481.245544,619.466553 
	C477.974670,619.584106 477.974670,619.584106 477.983582,610.941833 
z"/>
<path fill="#EEF9FC" opacity="1.000000" stroke="none" 
	d="
M143.653717,122.050247 
	C138.694092,132.888184 138.165802,143.669434 144.738037,154.655457 
	C143.599411,154.350845 141.593491,153.941635 141.310532,153.009445 
	C138.636963,144.201080 137.783401,135.210632 140.168198,126.196800 
	C140.574738,124.660187 142.219070,123.451065 143.653717,122.050247 
z"/>
<path fill="#3F5E6C" opacity="1.000000" stroke="none" 
	d="
M422.516602,435.967072 
	C422.567078,436.321198 422.156952,436.822479 421.748871,436.820831 
	C407.359772,436.762054 392.970856,436.656036 378.289978,436.256775 
	C392.684326,435.931152 407.370636,435.905426 422.516602,435.967072 
z"/>
<path fill="#EEF9FC" opacity="1.000000" stroke="none" 
	d="
M157.765854,108.722740 
	C153.880371,112.585938 149.762253,116.187416 145.338806,119.937592 
	C146.176071,113.910057 152.228271,108.281250 157.765854,108.722740 
z"/>
<path fill="#A5596B" opacity="1.000000" stroke="none" 
	d="
M560.976501,133.074860 
	C562.235840,135.031662 563.197388,136.773529 564.158997,138.515396 
	C563.679871,138.793091 563.200684,139.070786 562.721497,139.348480 
	C558.959961,137.300888 558.836792,132.970581 556.834167,129.819443 
	C557.267090,129.516083 557.700012,129.212708 558.132874,128.909348 
	C558.981506,130.226212 559.830139,131.543060 560.976501,133.074860 
z"/>
<path fill="#426371" opacity="1.000000" stroke="none" 
	d="
M218.526810,69.732513 
	C226.814377,69.522324 235.557159,69.405991 244.627625,69.534836 
	C236.297546,69.795471 227.639786,69.810921 218.526810,69.732513 
z"/>
<path fill="#426371" opacity="1.000000" stroke="none" 
	d="
M209.635147,66.088768 
	C210.613022,67.041809 211.235718,68.018425 211.938599,69.283035 
	C209.206146,69.571014 206.393494,69.571014 202.643173,69.571014 
	C205.269180,68.202507 207.274567,67.157425 209.635147,66.088768 
z"/>
<path fill="#3F5E6C" opacity="1.000000" stroke="none" 
	d="
M364.563660,435.808899 
	C361.181274,436.103485 357.346252,436.294739 353.234802,436.171661 
	C356.675903,435.806732 360.393463,435.756165 364.563660,435.808899 
z"/>
<path fill="#EEF9FC" opacity="1.000000" stroke="none" 
	d="
M165.765167,105.717285 
	C165.022095,106.414635 164.049911,106.856415 162.889557,107.572243 
	C162.320587,107.873886 161.939789,107.901482 161.277588,107.874535 
	C162.509460,107.033897 164.022766,106.247795 165.765167,105.717285 
z"/>
<path fill="#A5596B" opacity="1.000000" stroke="none" 
	d="
M563.829041,144.466583 
	C564.852966,146.173462 565.924866,148.237457 566.980347,150.690613 
	C565.934937,148.994415 564.905945,146.909058 563.829041,144.466583 
z"/>
<path fill="#3F5E6C" opacity="1.000000" stroke="none" 
	d="
M436.927002,436.621826 
	C435.204620,436.768860 433.312836,436.599121 431.165344,436.118408 
	C432.858948,435.973328 434.808258,436.139191 436.927002,436.621826 
z"/>
<path fill="#EEF9FC" opacity="1.000000" stroke="none" 
	d="
M432.748169,105.764709 
	C430.632568,106.103867 428.252136,106.154419 425.435944,106.104683 
	C427.494568,105.828293 429.988983,105.652199 432.748169,105.764709 
z"/>
<path fill="#EEF9FC" opacity="1.000000" stroke="none" 
	d="
M145.049805,156.216537 
	C146.034149,156.992813 147.003830,158.149673 148.052185,159.628265 
	C147.098969,158.832367 146.067062,157.714752 145.049805,156.216537 
z"/>
<path fill="#3F5E6C" opacity="1.000000" stroke="none" 
	d="
M374.575531,435.840698 
	C372.833496,436.127563 370.661407,436.314056 368.236633,436.210876 
	C370.037781,435.860901 372.091614,435.800629 374.575531,435.840698 
z"/>
<path fill="#A5596B" opacity="1.000000" stroke="none" 
	d="
M574.046631,155.651382 
	C573.585815,155.407959 573.081665,154.870987 572.806885,154.159302 
	C573.358643,154.442337 573.680908,154.900085 574.046631,155.651382 
z"/>
<path fill="#A3596A" opacity="1.000000" stroke="none" 
	d="
M81.558609,121.562256 
	C81.795746,121.000549 82.215393,120.639931 82.635033,120.279312 
	C82.644341,120.794296 82.653656,121.309288 82.404556,121.974731 
	C82.011139,122.004578 81.876129,121.883957 81.558609,121.562256 
z"/>
<path fill="#A5596B" opacity="1.000000" stroke="none" 
	d="
M566.383301,141.701721 
	C565.997559,141.530273 565.535339,141.013382 565.049805,140.127319 
	C565.453247,140.290848 565.880066,140.823563 566.383301,141.701721 
z"/>
<path fill="#A5596B" opacity="1.000000" stroke="none" 
	d="
M562.851074,142.374329 
	C563.163147,142.550659 563.526428,143.034958 563.864624,143.846924 
	C563.527100,143.677170 563.214661,143.179718 562.851074,142.374329 
z"/>
<path fill="#A5596B" opacity="1.000000" stroke="none" 
	d="
M580.183899,168.599243 
	C579.864990,168.397583 579.484680,167.873169 579.123413,166.997070 
	C579.469177,167.189102 579.795837,167.732803 580.183899,168.599243 
z"/>
<path fill="#A5596B" opacity="1.000000" stroke="none" 
	d="
M578.926636,165.690598 
	C578.616638,165.503906 578.323730,165.021103 578.033813,164.242233 
	C578.339050,164.428940 578.641418,164.911713 578.926636,165.690598 
z"/>
<path fill="#A5596B" opacity="1.000000" stroke="none" 
	d="
M578.057495,163.660660 
	C577.727173,163.466400 577.401001,162.949738 577.085266,162.109344 
	C577.417725,162.303162 577.739624,162.820709 578.057495,163.660660 
z"/>
<path fill="#A5596B" opacity="1.000000" stroke="none" 
	d="
M575.117065,157.632004 
	C574.792053,157.476471 574.430115,157.011551 574.062744,156.231903 
	C574.398254,156.385666 574.739258,156.854141 575.117065,157.632004 
z"/>
<path fill="#A5596B" opacity="1.000000" stroke="none" 
	d="
M571.933899,151.714050 
	C571.719543,151.714828 571.463379,151.420883 571.174683,150.826874 
	C571.392151,150.824310 571.642090,151.121811 571.933899,151.714050 
z"/>
<path fill="#3F5E6C" opacity="1.000000" stroke="none" 
	d="
M426.741638,435.980072 
	C426.718811,436.153198 426.454987,436.255768 426.104370,436.202637 
	C426.178619,436.001099 426.339630,435.955322 426.741638,435.980072 
z"/>
<path fill="#A5596B" opacity="1.000000" stroke="none" 
	d="
M569.892090,147.725449 
	C569.671143,147.746521 569.433777,147.496948 569.151611,146.987762 
	C569.363098,146.970352 569.619446,147.212570 569.892090,147.725449 
z"/>
<path fill="#A5596B" opacity="1.000000" stroke="none" 
	d="
M570.899719,149.715012 
	C570.684021,149.724823 570.441345,149.456055 570.163330,148.910812 
	C570.376160,148.901703 570.624451,149.169067 570.899719,149.715012 
z"/>
<path fill="#EEF9FC" opacity="1.000000" stroke="none" 
	d="
M394.893738,105.733978 
	C394.823059,105.921532 394.661438,105.963692 394.257751,105.941269 
	C394.278076,105.780663 394.540436,105.684631 394.893738,105.733978 
z"/>
<path fill="#A5596B" opacity="1.000000" stroke="none" 
	d="
M576.856262,160.724823 
	C576.632446,160.747971 576.406616,160.505966 576.134399,160.015381 
	C576.343506,159.997772 576.598816,160.228729 576.856262,160.724823 
z"/>
<path fill="#A5596B" opacity="1.000000" stroke="none" 
	d="
M575.872070,158.737625 
	C575.563782,158.857147 575.337158,158.635330 575.135986,158.095398 
	C575.345581,158.065384 575.609680,158.271729 575.872070,158.737625 
z"/>
<path fill="#426371" opacity="1.000000" stroke="none" 
	d="
M423.022797,65.689224 
	C422.792114,65.901451 422.516327,65.772842 422.157745,65.350906 
	C422.328583,65.255844 422.629486,65.352783 423.022797,65.689224 
z"/>
<path fill="#A5596B" opacity="1.000000" stroke="none" 
	d="
M567.155884,152.269180 
	C567.467285,152.163483 567.685730,152.395859 567.869568,152.944595 
	C567.661011,152.964661 567.403625,152.746750 567.155884,152.269180 
z"/>
<path fill="#F5F6F6" opacity="1.000000" stroke="none" 
	d="
M486.656769,258.407837 
	C490.777313,282.172424 494.771423,305.519196 498.809265,329.121765 
	C476.914917,329.121765 455.549042,329.121765 433.683197,329.121765 
	C436.941925,312.961456 440.078766,297.363220 443.233612,281.768616 
	C450.472931,245.984070 457.783722,210.213715 464.876038,174.400101 
	C465.650208,170.490753 467.806671,170.174057 471.437286,170.217316 
	C476.477692,199.529495 481.504028,228.759766 486.656769,258.407837 
z"/>
<path fill="#F5F6F7" opacity="1.000000" stroke="none" 
	d="
M195.967285,307.020447 
	C197.171692,314.440613 198.350357,321.427856 199.583572,328.738556 
	C177.834641,328.738556 156.725723,328.738556 134.600632,328.738556 
	C145.277359,275.896545 155.893036,223.356766 166.560089,170.562729 
	C170.419693,169.222015 172.348282,169.957520 173.126541,174.612183 
	C178.956268,209.479034 185.027878,244.305511 191.050064,279.140076 
	C192.633179,288.297424 194.308533,297.438782 195.967285,307.020447 
z"/>
<path fill="#F7F6F7" opacity="1.000000" stroke="none" 
	d="
M201.010010,122.977890 
	C199.761948,121.678024 198.732803,120.159065 197.852325,118.319366 
	C198.001007,117.998634 197.998703,118.001526 197.998703,118.001526 
	C199.077805,119.263252 200.156921,120.524979 201.433960,122.037506 
	C201.497574,122.445137 201.363266,122.601967 201.010010,122.977890 
z"/>
<path fill="#F7F6F7" opacity="1.000000" stroke="none" 
	d="
M436.602539,122.527420 
	C437.036957,121.582016 437.679596,120.890251 438.322235,120.198486 
	C438.531342,120.310020 438.740448,120.421562 438.949554,120.533096 
	C438.559509,121.313301 438.169464,122.093513 437.523163,123.063339 
	C437.114838,123.095657 436.962799,122.938354 436.602539,122.527420 
z"/>
<path fill="#F7F6F7" opacity="1.000000" stroke="none" 
	d="
M198.005539,117.992104 
	C197.769028,117.858047 197.527969,117.730515 197.286926,117.602997 
	C197.488632,117.563271 197.690323,117.523552 197.945374,117.742676 
	C197.998703,118.001526 198.001007,117.998634 198.005539,117.992104 
z"/>
<path fill="#F8F2F4" opacity="1.000000" stroke="none" 
	d="
M96.810417,595.403564 
	C97.617294,600.082214 99.124313,604.557007 98.584465,608.769531 
	C97.620064,616.294861 90.739235,619.335083 80.049820,617.640564 
	C80.049820,609.002014 80.049820,600.282959 80.049820,591.169434 
	C86.052773,590.648376 91.998482,589.695679 96.810417,595.403564 
z"/>
<path fill="#F8F3F4" opacity="1.000000" stroke="none" 
	d="
M399.316467,617.827515 
	C390.463348,615.151367 388.572906,611.947021 389.007629,600.976746 
	C389.264221,594.501770 392.395020,590.637329 398.452332,589.318848 
	C403.661255,588.184998 409.526276,590.914001 410.762207,596.059326 
	C411.776825,600.283386 412.015686,604.979187 411.322357,609.259155 
	C410.353851,615.237610 407.084686,617.167847 399.316467,617.827515 
z"/>
<path fill="#F9E7EC" opacity="1.000000" stroke="none" 
	d="
M39.882595,603.983582 
	C41.363171,599.903809 42.730194,596.208008 44.356880,591.810242 
	C46.399525,597.435486 48.167095,602.303162 50.175472,607.833984 
	C46.827007,607.833984 44.210716,607.789856 41.596550,607.845459 
	C38.578274,607.909668 38.751884,606.380249 39.882595,603.983582 
z"/>
<path fill="#FAECF0" opacity="1.000000" stroke="none" 
	d="
M232.822418,600.847534 
	C233.958694,597.748352 234.958496,595.018799 236.341904,591.241943 
	C238.441086,596.908264 240.155258,601.535339 242.039047,606.620300 
	C238.250183,606.620300 234.902878,606.620300 230.815872,606.620300 
	C231.480530,604.699890 232.083237,602.958496 232.822418,600.847534 
z"/>
<path fill="#F9ECEE" opacity="1.000000" stroke="none" 
	d="
M134.627701,595.408203 
	C136.065445,599.301086 137.359543,602.837097 138.816605,606.818298 
	C134.794312,606.818298 131.266708,606.818298 127.248459,606.818298 
	C129.074005,601.766052 130.823105,596.925415 132.934845,591.081055 
	C133.714615,593.079346 134.099350,594.065308 134.627701,595.408203 
z"/>
</svg>